STARTFONT 2.1
FONT -Monotype-Bookman Old Style-Bold-R-Normal--25-180-100-100-P-133-iso8859-9
SIZE 18 100 100
FONTBOUNDINGBOX 38 30 -5 -6

STARTPROPERTIES 24
FOUNDRY "Monotype"
FAMILY_NAME "Bookman Old Style"
WEIGHT_NAME "Bold"
SLANT "R"
SETWIDTH_NAME "Normal"
ADD_STYLE_NAME ""
PIXEL_SIZE 25
POINT_SIZE 180
RESOLUTION_X 100
RESOLUTION_Y 100
SPACING "P"
AVERAGE_WIDTH 133
CHARSET_REGISTRY "iso8859"
CHARSET_ENCODING "9"
FACE_NAME "Bookman Old Style Bold ISO Latin5"
_DEC_DEVICE_FONTNAMES "PS=bookmanoldstyle-b-lat5"
COPYRIGHT "Copyright (c) 1993 Monotype Typography Ltd."
CAP_HEIGHT 20
X_HEIGHT 14
WEIGHT 10
QUAD_WIDTH 18
DEFAULT_CHAR 160
FONT_DESCENT 6
FONT_ASCENT 24
ENDPROPERTIES

CHARS 191

STARTCHAR space
ENCODING 32
SWIDTH 340 0
DWIDTH 9 0
BBX 0 0 0 0
BITMAP
ENDCHAR

STARTCHAR exclam
ENCODING 33
SWIDTH 360 0
DWIDTH 9 0
BBX 5 17 2 0
BITMAP
70
F8
F8
F8
F8
70
70
70
70
70
70
50
20
70
F8
70
20
ENDCHAR

STARTCHAR quotedbl
ENCODING 34
SWIDTH 420 0
DWIDTH 10 0
BBX 8 7 1 10
BITMAP
42
E7
E7
E7
67
42
42
ENDCHAR

STARTCHAR numbersign
ENCODING 35
SWIDTH 600 0
DWIDTH 15 0
BBX 13 17 1 0
BITMAP
0660
0E60
0CE0
0CE0
0CC0
7FF8
6FF8
1CC0
1CC0
FFF0
FFF0
1980
1980
1980
3980
3180
3380
ENDCHAR

STARTCHAR dollar
ENCODING 36
SWIDTH 660 0
DWIDTH 16 0
BBX 14 23 2 -3
BITMAP
0300
0300
0300
0F00
3FF0
7BF0
F378
F338
FF10
7F80
3FF0
1FF8
43F8
E37C
F33C
FB3C
FF78
7FF8
6FE0
0380
0300
0300
0300
ENDCHAR

STARTCHAR percent
ENCODING 37
SWIDTH 940 0
DWIDTH 23 0
BBX 22 17 1 0
BITMAP
3E0180
7F0300
E38300
E38600
E38600
E38C00
E39800
7F1800
1C31E0
0063F8
00671C
00C71C
01871C
01871C
03071C
0603F8
0600E0
ENDCHAR

STARTCHAR ampersand
ENCODING 38
SWIDTH 800 0
DWIDTH 20 0
BBX 19 17 1 0
BITMAP
0F8000
1FC000
3DE000
38E000
38E000
1FC000
0F8F80
3FCF80
79E700
F8F600
F0F6C0
F07EE0
F87CE0
FC7CE0
7FFFE0
3FEFC0
0F8700
ENDCHAR

STARTCHAR quoteright
ENCODING 39
SWIDTH 320 0
DWIDTH 8 0
BBX 5 9 2 9
BITMAP
F0
F0
F8
F8
38
70
E0
C0
40
ENDCHAR

STARTCHAR parenleft
ENCODING 40
SWIDTH 320 0
DWIDTH 8 0
BBX 6 24 1 -6
BITMAP
08
1C
38
78
78
70
F0
F0
F0
F0
F0
F0
F0
F0
F0
F0
F0
70
70
78
38
3C
18
08
ENDCHAR

STARTCHAR parenright
ENCODING 41
SWIDTH 320 0
DWIDTH 8 0
BBX 6 24 1 -6
BITMAP
20
E0
70
78
38
38
3C
3C
3C
3C
3C
3C
3C
3C
3C
3C
3C
3C
38
78
78
F0
60
20
ENDCHAR

STARTCHAR asterisk
ENCODING 42
SWIDTH 460 0
DWIDTH 11 0
BBX 11 10 0 7
BITMAP
0400
0E00
0E00
64C0
F5E0
7FC0
0E00
1B00
3B80
3180
ENDCHAR

STARTCHAR plus
ENCODING 43
SWIDTH 600 0
DWIDTH 15 0
BBX 12 12 1 3
BITMAP
0600
0600
0600
0600
0600
FFF0
FFF0
0600
0600
0600
0600
0600
ENDCHAR

STARTCHAR comma
ENCODING 44
SWIDTH 340 0
DWIDTH 9 0
BBX 5 9 2 -5
BITMAP
70
F8
F8
F8
38
30
70
E0
40
ENDCHAR

STARTCHAR minus
ENCODING 45
SWIDTH 600 0
DWIDTH 15 0
BBX 13 2 1 8
BITMAP
FFF8
FFF8
ENDCHAR

STARTCHAR period
ENCODING 46
SWIDTH 340 0
DWIDTH 9 0
BBX 5 5 2 0
BITMAP
70
F8
F8
70
20
ENDCHAR

STARTCHAR slash
ENCODING 47
SWIDTH 600 0
DWIDTH 15 0
BBX 10 22 2 -4
BITMAP
01C0
01C0
03C0
0380
0380
0780
0700
0700
0F00
0E00
0E00
1E00
1C00
1C00
3C00
3800
3800
7800
7000
7000
F000
E000
ENDCHAR

STARTCHAR zero
ENCODING 48
SWIDTH 660 0
DWIDTH 16 0
BBX 15 17 1 0
BITMAP
07C0
1FF0
3FF8
7C7C
783E
F81E
F01E
F01E
F01E
F01E
F01E
F83E
783C
7C7C
3FF8
1FF0
07C0
ENDCHAR

STARTCHAR one
ENCODING 49
SWIDTH 660 0
DWIDTH 16 0
BBX 10 17 4 0
BITMAP
0600
7E00
FE00
FE00
1E00
1E00
1E00
1E00
1E00
1E00
1E00
1E00
1E00
1E00
1E00
FFC0
FFC0
ENDCHAR

STARTCHAR two
ENCODING 50
SWIDTH 660 0
DWIDTH 16 0
BBX 15 18 1 -1
BITMAP
0FE0
3FF0
7FF8
707C
E03C
E03C
E03C
007C
00F8
01F0
03C0
0F8E
1C0C
3FFC
FFFC
FFFC
FFFC
0008
ENDCHAR

STARTCHAR three
ENCODING 51
SWIDTH 660 0
DWIDTH 16 0
BBX 14 17 1 0
BITMAP
0FC0
3FF0
7FF8
70F8
E078
0078
00F0
07C0
07F0
00F8
603C
F03C
F03C
F87C
7FF8
3FF0
0780
ENDCHAR

STARTCHAR four
ENCODING 52
SWIDTH 660 0
DWIDTH 16 0
BBX 15 17 1 0
BITMAP
00F0
01F0
03F0
07F0
0F70
1EF0
3CF0
78F0
F0F0
FFFE
FFFE
FFFE
00F0
00F0
00F0
00F0
00F0
ENDCHAR

STARTCHAR five
ENCODING 53
SWIDTH 660 0
DWIDTH 16 0
BBX 14 18 2 0
BITMAP
0018
7FF8
7FF8
7FF8
7FF8
7000
7000
7FC0
7FF0
7FF8
00FC
003C
E03C
F03C
F878
7FF8
3FE0
0780
ENDCHAR

STARTCHAR six
ENCODING 54
SWIDTH 660 0
DWIDTH 16 0
BBX 14 17 1 0
BITMAP
00F0
07F0
1FC0
3E00
7800
FBC0
FFF0
FFF8
F87C
F83C
F03C
F03C
F83C
7878
3FF8
1FF0
07C0
ENDCHAR

STARTCHAR seven
ENCODING 55
SWIDTH 660 0
DWIDTH 16 0
BBX 15 18 1 0
BITMAP
2000
7FFE
7FFE
7FFE
7FDC
E038
E070
00F0
01E0
01C0
03C0
03C0
0780
0780
0780
0F80
0F80
0F00
ENDCHAR

STARTCHAR eight
ENCODING 56
SWIDTH 660 0
DWIDTH 16 0
BBX 15 17 1 0
BITMAP
07E0
1FF0
3FF8
783C
783C
7C38
7F78
3FE0
0FF8
3FFC
787E
F03E
F01E
F83E
7FFC
3FF8
0FE0
ENDCHAR

STARTCHAR nine
ENCODING 57
SWIDTH 660 0
DWIDTH 16 0
BBX 14 17 1 0
BITMAP
0F80
3FF0
7FF8
7878
F03C
F03C
F03C
F03C
F87C
7FFC
3F9C
0E7C
0078
01F0
1FE0
3F80
3C00
ENDCHAR

STARTCHAR colon
ENCODING 58
SWIDTH 340 0
DWIDTH 9 0
BBX 5 12 2 0
BITMAP
30
F8
F8
70
00
00
00
00
70
F8
70
20
ENDCHAR

STARTCHAR semicolon
ENCODING 59
SWIDTH 340 0
DWIDTH 9 0
BBX 5 17 2 -5
BITMAP
30
F8
F8
70
20
00
00
00
70
F8
F8
78
18
38
70
E0
40
ENDCHAR

STARTCHAR less
ENCODING 60
SWIDTH 600 0
DWIDTH 15 0
BBX 13 13 1 2
BITMAP
0018
0078
01F0
0FC0
3F00
FC00
F000
FC00
1F00
07C0
01F0
0078
0018
ENDCHAR

STARTCHAR equal
ENCODING 61
SWIDTH 600 0
DWIDTH 15 0
BBX 13 7 1 5
BITMAP
FFF8
FFF8
0000
0000
0000
FFF8
FFF8
ENDCHAR

STARTCHAR greater
ENCODING 62
SWIDTH 600 0
DWIDTH 15 0
BBX 13 13 1 2
BITMAP
C000
F000
7C00
1F00
07E0
01F8
0078
01F8
07C0
1F00
7C00
F000
C000
ENDCHAR

STARTCHAR question
ENCODING 63
SWIDTH 660 0
DWIDTH 16 0
BBX 14 17 1 0
BITMAP
1F80
7FE0
FFF8
F078
E03C
003C
007C
0FFC
0FF8
0FE0
0C00
0800
0400
0E00
1F00
0E00
0400
ENDCHAR

STARTCHAR at
ENCODING 64
SWIDTH 820 0
DWIDTH 21 0
BBX 22 23 0 -6
BITMAP
00FF00
0300C0
0C0020
180010
300010
603B88
60EB08
41C708
C18708
838E08
838E08
870E08
871E10
872C10
C7DC20
47DCC4
438F08
200008
200010
100020
0C00C0
038300
007C00
ENDCHAR

STARTCHAR A
ENCODING 65
SWIDTH 720 0
DWIDTH 18 0
BBX 18 17 0 0
BITMAP
01E000
01E000
03F000
03F000
077800
077800
077C00
0E3C00
0E3C00
1FFE00
1FFE00
1C1F00
381F00
380F00
FE3FC0
FE3FC0
FE3FC0
ENDCHAR

STARTCHAR B
ENCODING 66
SWIDTH 720 0
DWIDTH 18 0
BBX 16 17 1 0
BITMAP
FFF8
FFFE
7FFF
3C1F
3C0F
3C0F
3C3E
3FF8
3FFE
3C3F
3C0F
3C0F
3C0F
3C1F
FFFE
FFFC
FFF0
ENDCHAR

STARTCHAR C
ENCODING 67
SWIDTH 740 0
DWIDTH 18 0
BBX 17 17 1 0
BITMAP
03F600
0FFE00
1FFF00
3E0F00
7C0700
780380
F80300
F80000
F80000
F80000
F80000
7C0100
7C0380
3F0F00
1FFE00
0FFC00
03F000
ENDCHAR

STARTCHAR D
ENCODING 68
SWIDTH 780 0
DWIDTH 20 0
BBX 18 17 1 0
BITMAP
FFF000
FFFE00
7FFF00
3C1F80
3C0F80
3C0780
3C07C0
3C07C0
3C07C0
3C07C0
3C07C0
3C0780
3C0F80
3C1F00
FFFE00
FFFC00
FFE000
ENDCHAR

STARTCHAR E
ENCODING 69
SWIDTH 720 0
DWIDTH 18 0
BBX 17 17 1 0
BITMAP
FFFC00
FFFE00
7FFE00
3C0E00
3C0700
3C6300
3C6000
3FE000
3FE000
3CE000
3C6380
3C6380
3C0700
3C0F00
FFFE00
FFFE00
FFFE00
ENDCHAR

STARTCHAR F
ENCODING 70
SWIDTH 680 0
DWIDTH 17 0
BBX 16 17 1 0
BITMAP
FFFC
FFFE
FFFE
3C0E
3C07
3C67
3C62
3CE0
3FE0
3FE0
3CE0
3C60
3C60
3C00
3C00
FF00
FF00
ENDCHAR

STARTCHAR G
ENCODING 71
SWIDTH 780 0
DWIDTH 20 0
BBX 19 17 1 0
BITMAP
03F600
0FFF00
1FFF00
3E0F00
7C0780
780380
F80000
F80000
F81FE0
F81FE0
F80780
7C0780
7C0780
3F0F80
1FFF80
0FFD80
03E380
ENDCHAR

STARTCHAR H
ENCODING 72
SWIDTH 820 0
DWIDTH 21 0
BBX 18 17 1 0
BITMAP
FF3FC0
FF3FC0
7C0F80
3C0F00
3C0F00
3C0F00
3C0F00
3FFF00
3FFF00
3FFF00
3C0F00
3C0F00
3C0F00
3C0F00
3C0F00
FF3FC0
FF3FC0
ENDCHAR

STARTCHAR I
ENCODING 73
SWIDTH 400 0
DWIDTH 10 0
BBX 8 17 1 0
BITMAP
FF
FF
3C
3C
3C
3C
3C
3C
3C
3C
3C
3C
3C
3C
3C
FF
FF
ENDCHAR

STARTCHAR J
ENCODING 74
SWIDTH 640 0
DWIDTH 16 0
BBX 15 17 0 0
BITMAP
01FE
01FE
0078
0078
0078
0078
0078
0078
0078
6078
F078
F078
F078
F8F8
7FF0
3FE0
0F80
ENDCHAR

STARTCHAR K
ENCODING 75
SWIDTH 800 0
DWIDTH 20 0
BBX 19 17 1 0
BITMAP
FF3FC0
FF3FC0
3C0F80
3C1E00
3C3C00
3C7800
3CF000
3DF000
3FF800
3FBC00
3E7C00
3C3E00
3C1F00
3C0F80
3E0F80
FF3FE0
FF3FE0
ENDCHAR

STARTCHAR L
ENCODING 76
SWIDTH 640 0
DWIDTH 16 0
BBX 15 17 1 0
BITMAP
FF00
FF00
3C00
3C00
3C00
3C00
3C00
3C00
3C00
3C00
3C06
3C0E
3C1C
3C3C
FFFC
FFF8
FFF8
ENDCHAR

STARTCHAR M
ENCODING 77
SWIDTH 940 0
DWIDTH 23 0
BBX 21 17 1 0
BITMAP
FF07F8
FF07F8
3F07E0
3B8EE0
3B8EE0
3B8DE0
3B8DE0
3BDDE0
3BD9E0
39D9E0
39F9E0
39F9E0
39F1E0
38F1E0
38F1E0
FEE7F8
FE67F8
ENDCHAR

STARTCHAR N
ENCODING 78
SWIDTH 740 0
DWIDTH 18 0
BBX 17 17 1 0
BITMAP
FE3F80
FF3F80
3F0E00
3F8E00
3B8E00
3BCE00
3BCE00
39EE00
39EE00
38F600
38FE00
387E00
387E00
383E00
383E00
FE1E00
FE1E00
ENDCHAR

STARTCHAR O
ENCODING 79
SWIDTH 800 0
DWIDTH 20 0
BBX 19 17 1 0
BITMAP
03F800
0FFE00
1FFF00
3E0F80
7C07C0
7C03C0
F803E0
F803E0
F803E0
F803E0
F803E0
7C03C0
7C07C0
3E0F80
1FFF00
0FFE00
01F800
ENDCHAR

STARTCHAR P
ENCODING 80
SWIDTH 660 0
DWIDTH 16 0
BBX 15 17 1 0
BITMAP
FFF0
FFFC
FFFC
3C3E
3C1E
3C1E
3C1E
3C3E
3FFC
3FF8
3FE0
3C00
3C00
3C00
3C00
FF00
FF00
ENDCHAR

STARTCHAR Q
ENCODING 81
SWIDTH 800 0
DWIDTH 20 0
BBX 19 22 1 -5
BITMAP
03F800
0FFE00
1FFF00
3E0F80
7C07C0
7C03C0
F803E0
F803E0
F803E0
F803E0
F803E0
7C03C0
7C07C0
3E0F80
1FFF00
0FFE00
03F800
01F000
00F040
00FFE0
007FC0
001F00
ENDCHAR

STARTCHAR R
ENCODING 82
SWIDTH 780 0
DWIDTH 20 0
BBX 19 17 1 0
BITMAP
FFFC00
FFFF00
FFFF80
3C0F80
3C0780
3C0780
3C0F80
3C1F00
3FFF00
3FF400
3CF800
3C7C00
3C3E00
3C3F00
3C1F80
FF0FE0
FF07E0
ENDCHAR

STARTCHAR S
ENCODING 83
SWIDTH 660 0
DWIDTH 16 0
BBX 15 17 1 0
BITMAP
0F98
3FF8
7FF8
F07C
F03C
F81C
FF00
7FF0
3FF8
07FC
C0FE
E03E
F01E
F81C
7FFC
6FF8
63E0
ENDCHAR

STARTCHAR T
ENCODING 84
SWIDTH 700 0
DWIDTH 17 0
BBX 18 18 0 0
BITMAP
300300
3FFF00
3FFF00
79E780
71E380
E1E1C0
61E180
01E000
01E000
01E000
01E000
01E000
01E000
01E000
01E000
01E000
07F800
07F800
ENDCHAR

STARTCHAR U
ENCODING 85
SWIDTH 740 0
DWIDTH 18 0
BBX 17 17 1 0
BITMAP
FF3F80
FF3F80
3C0E00
3C0E00
3C0E00
3C0E00
3C0E00
3C0E00
3C0E00
3C0E00
3C0E00
3C0E00
3C0E00
3E1C00
1FFC00
0FF800
03E000
ENDCHAR

STARTCHAR V
ENCODING 86
SWIDTH 720 0
DWIDTH 18 0
BBX 18 17 0 0
BITMAP
FF1FC0
FF1FC0
7E0780
3E0700
3E0700
1E0E00
1F0E00
1F1E00
0F1C00
0F9C00
07B800
07B800
07F800
03F000
03F000
01E000
01E000
ENDCHAR

STARTCHAR W
ENCODING 87
SWIDTH 940 0
DWIDTH 23 0
BBX 23 17 0 0
BITMAP
FF7F7E
FF7F7E
7E7C3C
3E3C38
3E3C38
1E1E38
1E1E38
1F3E70
0F3E70
0F3F70
0F77E0
0FAF60
07E7E0
07E7E0
07C7C0
03C3C0
03C3C0
ENDCHAR

STARTCHAR X
ENCODING 88
SWIDTH 780 0
DWIDTH 20 0
BBX 20 17 0 0
BITMAP
7FDFE0
7FDFE0
3F0780
1F8F00
0FDE00
07FC00
03F800
01F000
00F000
01F800
03FC00
07BE00
0F1F00
1E1F80
7C0FC0
FF3FF0
FF3FF0
ENDCHAR

STARTCHAR Y
ENCODING 89
SWIDTH 700 0
DWIDTH 17 0
BBX 18 17 0 0
BITMAP
FF9FC0
FF9FC0
3E0F00
3E0F00
1F0E00
0F9C00
0FBC00
07F800
03F000
03F000
01E000
01E000
01E000
01E000
03E000
07F800
07F800
ENDCHAR

STARTCHAR Z
ENCODING 90
SWIDTH 640 0
DWIDTH 16 0
BBX 16 17 0 0
BITMAP
1FFE
3FFE
3FBE
787C
70F8
E0F0
21F0
03E0
07C0
0F80
0F86
1F07
3E0E
7C1E
7FFC
7FFC
7FFC
ENDCHAR

STARTCHAR bracketleft
ENCODING 91
SWIDTH 300 0
DWIDTH 8 0
BBX 6 23 2 -6
BITMAP
FC
FC
E0
E0
E0
E0
E0
E0
E0
E0
E0
E0
E0
E0
E0
E0
E0
E0
E0
E0
E0
FC
FC
ENDCHAR

STARTCHAR backslash
ENCODING 92
SWIDTH 600 0
DWIDTH 15 0
BBX 10 22 2 -4
BITMAP
E000
F000
7000
7000
7800
3800
3800
3C00
1C00
1C00
1E00
0E00
0E00
0F00
0700
0700
0780
0380
0380
03C0
01C0
01C0
ENDCHAR

STARTCHAR bracketright
ENCODING 93
SWIDTH 300 0
DWIDTH 8 0
BBX 6 23 0 -6
BITMAP
FC
FC
1C
1C
1C
1C
1C
1C
1C
1C
1C
1C
1C
1C
1C
1C
1C
1C
1C
1C
1C
FC
FC
ENDCHAR

STARTCHAR asciicircum
ENCODING 94
SWIDTH 600 0
DWIDTH 15 0
BBX 13 10 1 7
BITMAP
0700
0700
0F80
0D80
1DC0
18C0
38E0
3060
7070
E038
ENDCHAR

STARTCHAR underscore
ENCODING 95
SWIDTH 500 0
DWIDTH 13 0
BBX 13 1 0 -3
BITMAP
FFF8
ENDCHAR

STARTCHAR quoteleft
ENCODING 96
SWIDTH 320 0
DWIDTH 8 0
BBX 5 9 1 9
BITMAP
08
18
38
70
E0
F8
F8
78
78
ENDCHAR

STARTCHAR a
ENCODING 97
SWIDTH 580 0
DWIDTH 15 0
BBX 13 12 1 0
BITMAP
1F80
7FC0
79E0
71E0
01E0
3FE0
7FE0
F1E0
F1E0
FFF8
7EF8
3878
ENDCHAR

STARTCHAR b
ENCODING 98
SWIDTH 600 0
DWIDTH 15 0
BBX 14 18 0 0
BITMAP
0C00
FC00
FC00
FC00
3C00
3C00
3DE0
3FF8
3FF8
3C7C
3C3C
3C3C
3C3C
3C3C
3C7C
3FF8
3FF0
39E0
ENDCHAR

STARTCHAR c
ENCODING 99
SWIDTH 580 0
DWIDTH 15 0
BBX 13 12 1 0
BITMAP
0F80
3FE0
7FF0
78F8
F070
F000
F000
F810
7838
7FF0
3FE0
0F80
ENDCHAR

STARTCHAR d
ENCODING 100
SWIDTH 640 0
DWIDTH 16 0
BBX 14 18 1 0
BITMAP
0030
03F0
03F0
03F0
00F0
00F0
1EF0
3FF0
7FF0
F8F0
F0F0
F0F0
F0F0
F0F0
F8F0
7FFC
3FFC
1E7C
ENDCHAR

STARTCHAR e
ENCODING 101
SWIDTH 580 0
DWIDTH 15 0
BBX 12 12 1 0
BITMAP
1F80
3FE0
79E0
F0F0
FFF0
FFF0
F000
F020
7870
7FF0
3FC0
0F80
ENDCHAR

STARTCHAR f
ENCODING 102
SWIDTH 380 0
DWIDTH 9 0
BBX 11 18 1 0
BITMAP
0780
1FE0
1FE0
3CE0
3C00
3C00
FF00
FF00
FF00
3C00
3C00
3C00
3C00
3C00
3C00
3C00
FF00
FF00
ENDCHAR

STARTCHAR g
ENCODING 103
SWIDTH 580 0
DWIDTH 15 0
BBX 14 18 0 -5
BITMAP
001C
1FDC
3FFC
78F0
78F0
78F0
79F0
1FE0
3F80
7000
7F00
7FF0
1FF8
7BFC
F03C
F038
7FF8
1FE0
ENDCHAR

STARTCHAR h
ENCODING 104
SWIDTH 680 0
DWIDTH 17 0
BBX 16 18 1 0
BITMAP
0C00
FC00
FC00
FC00
3C00
3C00
3DF0
3FF8
3FFC
3E3C
3C3C
3C3C
3C3C
3C3C
3C3C
3C3C
FE7F
FE7F
ENDCHAR

STARTCHAR i
ENCODING 105
SWIDTH 360 0
DWIDTH 9 0
BBX 8 17 1 0
BITMAP
3C
3C
3C
3C
00
0C
FC
FC
3C
3C
3C
3C
3C
3C
3C
FF
FF
ENDCHAR

STARTCHAR j
ENCODING 106
SWIDTH 340 0
DWIDTH 9 0
BBX 9 22 -2 -5
BITMAP
0780
0780
0780
0780
0000
0180
1F80
1F80
0780
0780
0780
0780
0780
0780
0780
0780
0780
0780
E780
F780
FF00
7C00
ENDCHAR

STARTCHAR k
ENCODING 107
SWIDTH 660 0
DWIDTH 16 0
BBX 16 18 1 0
BITMAP
0C00
FC00
FC00
FC00
3C00
3C00
3CFE
3CFE
3C7C
3CF0
3DC0
3FE0
3FF0
3EF0
3C78
3C7C
FEFF
FEFF
ENDCHAR

STARTCHAR l
ENCODING 108
SWIDTH 340 0
DWIDTH 9 0
BBX 8 18 0 0
BITMAP
0C
FC
FC
FC
3C
3C
3C
3C
3C
3C
3C
3C
3C
3C
3C
3C
FF
FF
ENDCHAR

STARTCHAR m
ENCODING 109
SWIDTH 1000 0
DWIDTH 25 0
BBX 24 12 1 0
BITMAP
1CF0F0
FDFBF8
FFFFFC
3E3E3C
3C3C3C
3C3C3C
3C3C3C
3C3C3C
3C3C3C
3C3C3C
FF7E7F
FF7E7F
ENDCHAR

STARTCHAR n
ENCODING 110
SWIDTH 680 0
DWIDTH 17 0
BBX 16 12 1 0
BITMAP
1CF0
FDF8
FFFC
3E3C
3C3C
3C3C
3C3C
3C3C
3C3C
3C3C
FE7F
FE7F
ENDCHAR

STARTCHAR o
ENCODING 111
SWIDTH 620 0
DWIDTH 16 0
BBX 13 12 1 0
BITMAP
0F80
3FE0
7FF0
F8F8
F078
F078
F078
F078
F8F8
7FF0
3FE0
0F80
ENDCHAR

STARTCHAR p
ENCODING 112
SWIDTH 640 0
DWIDTH 16 0
BBX 14 17 1 -5
BITMAP
1DE0
FFF8
FFF8
3C7C
3C3C
3C3C
3C3C
3C3C
3C7C
3FF8
3FF0
3DE0
3C00
3C00
3C00
FF00
FF00
ENDCHAR

STARTCHAR q
ENCODING 113
SWIDTH 620 0
DWIDTH 16 0
BBX 14 17 1 -5
BITMAP
1E70
3FF0
7FF0
F8F0
F0F0
F0F0
F0F0
F0F0
F8F0
7FF0
3FF0
1EF0
00F0
00F0
00F0
03FC
03FC
ENDCHAR

STARTCHAR r
ENCODING 114
SWIDTH 460 0
DWIDTH 11 0
BBX 11 12 1 0
BITMAP
1DC0
FDE0
FFE0
3FC0
3C00
3C00
3C00
3C00
3C00
3C00
FF00
FF00
ENDCHAR

STARTCHAR s
ENCODING 115
SWIDTH 520 0
DWIDTH 13 0
BBX 12 12 1 0
BITMAP
3FC0
7FE0
F1E0
F8E0
FE00
7FC0
1FE0
67F0
F0F0
F8F0
7FE0
6FC0
ENDCHAR

STARTCHAR t
ENCODING 116
SWIDTH 460 0
DWIDTH 11 0
BBX 10 16 0 0
BITMAP
0C00
1C00
1C00
3C00
FFC0
FFC0
FFC0
3C00
3C00
3C00
3C00
3C00
3C40
3FC0
1FC0
0F80
ENDCHAR

STARTCHAR u
ENCODING 117
SWIDTH 660 0
DWIDTH 16 0
BBX 16 12 0 0
BITMAP
FCFC
FCFC
FCFC
3C3C
3C3C
3C3C
3C3C
3C3C
3C7C
3FFF
1FDF
0F3F
ENDCHAR

STARTCHAR v
ENCODING 118
SWIDTH 600 0
DWIDTH 15 0
BBX 15 12 0 0
BITMAP
FF7E
FF7E
7C3C
3C38
3E78
1E70
1F70
0F60
0FE0
07C0
07C0
0380
ENDCHAR

STARTCHAR w
ENCODING 119
SWIDTH 800 0
DWIDTH 20 0
BBX 20 12 0 0
BITMAP
FEFDF0
FEFDF0
7CF0E0
3C79C0
3C79C0
1EF9C0
1EFD80
1EDF80
0F9F00
0F9F00
0F9F00
070E00
ENDCHAR

STARTCHAR x
ENCODING 120
SWIDTH 600 0
DWIDTH 15 0
BBX 15 12 0 0
BITMAP
7F7E
7F7E
7F7E
1E30
0F70
0FC0
0FE0
1DF0
3878
78FC
FDFE
FDFE
ENDCHAR

STARTCHAR y
ENCODING 121
SWIDTH 620 0
DWIDTH 16 0
BBX 15 18 0 -6
BITMAP
FF7E
FF7E
3C3C
3E38
1E38
1E78
0F70
0F70
0FE0
07E0
07C0
03C0
0380
0380
7700
7F00
7E00
3C00
ENDCHAR

STARTCHAR z
ENCODING 122
SWIDTH 560 0
DWIDTH 14 0
BBX 13 12 1 0
BITMAP
3FF0
7FF0
7DF0
E3E0
47C0
0F80
1F00
3E38
7870
FFF0
FFF0
FFE0
ENDCHAR

STARTCHAR braceleft
ENCODING 123
SWIDTH 320 0
DWIDTH 8 0
BBX 6 22 1 -5
BITMAP
0C
38
30
70
70
30
38
38
30
30
C0
40
30
38
38
38
78
70
70
30
38
0C
ENDCHAR

STARTCHAR bar
ENCODING 124
SWIDTH 600 0
DWIDTH 15 0
BBX 3 24 6 -5
BITMAP
E0
E0
E0
E0
E0
E0
E0
E0
E0
E0
E0
E0
E0
E0
E0
E0
E0
E0
E0
E0
E0
E0
E0
E0
ENDCHAR

STARTCHAR braceright
ENCODING 125
SWIDTH 320 0
DWIDTH 8 0
BBX 6 22 1 -5
BITMAP
C0
70
30
38
38
78
70
70
30
30
0C
0C
30
30
70
70
30
38
38
30
70
C0
ENDCHAR

STARTCHAR asciitilde
ENCODING 126
SWIDTH 600 0
DWIDTH 15 0
BBX 13 4 1 7
BITMAP
3C10
7FB8
E7F0
41E0
ENDCHAR

STARTCHAR space
ENCODING 160
SWIDTH 340 0
DWIDTH 10 0
BBX 0 0 0 0
BITMAP
ENDCHAR

STARTCHAR exclamdown
ENCODING 161
SWIDTH 360 0
DWIDTH 9 0
BBX 5 18 2 -5
BITMAP
70
F8
F8
70
00
70
70
70
70
70
70
70
78
F8
F8
F8
70
20
ENDCHAR

STARTCHAR cent
ENCODING 162
SWIDTH 660 0
DWIDTH 16 0
BBX 12 17 2 0
BITMAP
0300
0300
0300
0FC0
3FF0
7CF0
F870
F020
F000
F800
7830
7FF0
3FE0
0F80
0300
0300
0300
ENDCHAR

STARTCHAR sterling
ENCODING 163
SWIDTH 660 0
DWIDTH 16 0
BBX 16 17 0 0
BITMAP
03F0
0FFC
1FFC
1F0E
1E0E
1E00
7FF0
7FF0
0700
0781
7B03
FF03
EFC7
C7FF
EFFF
FEFE
783C
ENDCHAR

STARTCHAR currency
ENCODING 164
SWIDTH 600 0
DWIDTH 15 0
BBX 13 13 1 2
BITMAP
4010
EFB8
7FF0
38E0
7070
6030
6030
6030
7070
38E0
7FF0
EFB8
4010
ENDCHAR

STARTCHAR yen
ENCODING 165
SWIDTH 660 0
DWIDTH 16 0
BBX 18 17 -1 0
BITMAP
FF9FC0
FF9FC0
3E0700
1F0F00
1F1E00
0F9C00
07B800
3FFF00
3FFF00
03E000
01E000
3FFF00
3FFF00
01E000
03F000
07F800
07F800
ENDCHAR

STARTCHAR brokenbar
ENCODING 166
SWIDTH 600 0
DWIDTH 15 0
BBX 3 24 6 -5
BITMAP
E0
E0
E0
E0
E0
E0
E0
E0
E0
E0
E0
80
20
E0
E0
E0
E0
E0
E0
E0
E0
E0
E0
E0
ENDCHAR

STARTCHAR section
ENCODING 167
SWIDTH 600 0
DWIDTH 15 0
BBX 13 21 1 -4
BITMAP
0FC0
3FF0
3CF8
7878
7870
7F00
1FE0
3FF0
7BF8
7078
7838
7F38
3FF0
1FF0
07F8
60F8
F078
F878
FCF0
7FE0
1FC0
ENDCHAR

STARTCHAR dieresis
ENCODING 168
SWIDTH 500 0
DWIDTH 13 0
BBX 9 3 2 14
BITMAP
E380
E380
E380
ENDCHAR

STARTCHAR copyright
ENCODING 169
SWIDTH 740 0
DWIDTH 18 0
BBX 17 17 1 0
BITMAP
07F000
1C1C00
300600
63EB00
461900
4E0980
8C0880
9C0080
9C0080
9C0080
9C0080
CE1180
463100
61C300
300600
1C1C00
07F000
ENDCHAR

STARTCHAR ordfeminine
ENCODING 170
SWIDTH 400 0
DWIDTH 10 0
BBX 9 8 1 9
BITMAP
3E00
7F00
6700
1F00
7B00
E700
FF80
7B80
ENDCHAR

STARTCHAR guillemotleft
ENCODING 171
SWIDTH 400 0
DWIDTH 10 0
BBX 8 10 1 1
BITMAP
32
63
67
E6
CE
EE
E6
67
73
21
ENDCHAR

STARTCHAR logicalnot
ENCODING 172
SWIDTH 600 0
DWIDTH 15 0
BBX 12 7 1 4
BITMAP
FFF0
FFF0
0030
0030
0030
0030
0030
ENDCHAR

STARTCHAR hyphen
ENCODING 173
SWIDTH 360 0
DWIDTH 9 0
BBX 7 3 1 5
BITMAP
FE
FE
FE
ENDCHAR

STARTCHAR registered
ENCODING 174
SWIDTH 740 0
DWIDTH 18 0
BBX 17 17 1 0
BITMAP
07F000
1C1C00
300600
6FE300
463100
C63980
863880
863080
87E080
86E080
867080
C67180
463900
6FBB00
300600
1C1C00
07F000
ENDCHAR

STARTCHAR macron
ENCODING 175
SWIDTH 460 0
DWIDTH 11 0
BBX 8 2 2 15
BITMAP
FF
FF
ENDCHAR

STARTCHAR degree
ENCODING 176
SWIDTH 400 0
DWIDTH 10 0
BBX 7 7 2 10
BITMAP
38
7C
C6
C6
C6
7C
38
ENDCHAR

STARTCHAR plusminus
ENCODING 177
SWIDTH 600 0
DWIDTH 15 0
BBX 12 15 1 1
BITMAP
0600
0600
0600
0600
0600
FFF0
FFF0
0600
0600
0600
0600
0600
0000
FFF0
FFF0
ENDCHAR

STARTCHAR twosuperior
ENCODING 178
SWIDTH 396 0
DWIDTH 10 0
BBX 9 9 0 8
BITMAP
3E00
7F80
C380
C380
0700
0E00
3980
FF80
FF80
ENDCHAR

STARTCHAR threesuperior
ENCODING 179
SWIDTH 396 0
DWIDTH 10 0
BBX 9 9 0 8
BITMAP
3E00
7F80
6380
0E00
0F80
6380
E380
7F00
1E00
ENDCHAR

STARTCHAR acute
ENCODING 180
SWIDTH 400 0
DWIDTH 10 0
BBX 6 4 2 14
BITMAP
3C
7C
FC
F0
ENDCHAR

STARTCHAR mu
ENCODING 181
SWIDTH 660 0
DWIDTH 16 0
BBX 14 17 2 -5
BITMAP
78F0
78F0
78F0
78F0
78F0
78F0
78F0
78F0
78F0
78F0
7FFC
5F78
CC20
E000
E000
E000
4000
ENDCHAR

STARTCHAR paragraph
ENCODING 182
SWIDTH 800 0
DWIDTH 20 0
BBX 13 22 4 -5
BITMAP
1FF8
7F60
FF60
FF60
FF60
FF60
FF60
FF60
FF60
7F60
1F60
0360
0360
0360
0360
0360
0360
0360
0360
0360
0360
0360
ENDCHAR

STARTCHAR periodcentered
ENCODING 183
SWIDTH 340 0
DWIDTH 9 0
BBX 5 5 2 6
BITMAP
30
F8
F8
70
20
ENDCHAR

STARTCHAR cedilla
ENCODING 184
SWIDTH 360 0
DWIDTH 9 0
BBX 5 6 2 -6
BITMAP
40
70
18
98
F8
70
ENDCHAR

STARTCHAR onesuperior
ENCODING 185
SWIDTH 396 0
DWIDTH 10 0
BBX 7 9 2 8
BITMAP
18
F8
38
38
38
38
38
FE
FE
ENDCHAR

STARTCHAR ordmasculine
ENCODING 186
SWIDTH 400 0
DWIDTH 10 0
BBX 9 8 1 9
BITMAP
3E00
7F00
E380
E380
E380
E380
7F00
3E00
ENDCHAR

STARTCHAR guillemotright
ENCODING 187
SWIDTH 400 0
DWIDTH 10 0
BBX 8 10 1 1
BITMAP
4C
C6
E6
67
73
73
67
E6
CE
44
ENDCHAR

STARTCHAR onequarter
ENCODING 188
SWIDTH 990 0
DWIDTH 25 0
BBX 21 17 3 0
BITMAP
180300
F80600
380C00
380C00
381800
383800
383000
FE6000
FE60E0
00C1E0
0183E0
018760
030EE0
070FF8
060FF8
0C00E0
1C00E0
ENDCHAR

STARTCHAR onehalf
ENCODING 189
SWIDTH 990 0
DWIDTH 25 0
BBX 21 17 2 0
BITMAP
180300
F80700
380600
380C00
380C00
381800
383000
FE3000
FE63E0
00C7F8
00CC38
018C38
030070
0300E0
060398
0C0FF8
1C0FF8
ENDCHAR

STARTCHAR threequarters
ENCODING 190
SWIDTH 990 0
DWIDTH 25 0
BBX 23 17 1 0
BITMAP
3E00C0
7F8180
638180
0E0300
0F8600
638600
E38C00
7F1800
1E1838
003078
0030F8
0061D8
00C338
00C7FE
0187FE
030038
030038
ENDCHAR

STARTCHAR questiondown
ENCODING 191
SWIDTH 660 0
DWIDTH 16 0
BBX 14 18 1 -5
BITMAP
01C0
01E0
03E0
01C0
0000
00C0
00C0
1FC0
7FC0
7FC0
F800
F000
F018
F83C
7C7C
3FFC
1FF8
07E0
ENDCHAR

STARTCHAR Agrave
ENCODING 192
SWIDTH 720 0
DWIDTH 18 0
BBX 18 23 0 0
BITMAP
010000
03C000
03E000
03F000
007000
000000
01E000
01E000
03F000
03F000
077800
077800
077C00
0E3C00
0E3C00
1FFE00
1FFE00
1C1F00
381F00
380F00
FE3FC0
FE3FC0
FE3FC0
ENDCHAR

STARTCHAR Aacute
ENCODING 193
SWIDTH 720 0
DWIDTH 18 0
BBX 18 23 0 0
BITMAP
002000
00F000
01F000
03F000
038000
000000
01E000
01E000
03F000
03F000
077800
077800
077C00
0E3C00
0E3C00
1FFE00
1FFE00
1C1F00
381F00
380F00
FE3FC0
FE3FC0
FE3FC0
ENDCHAR

STARTCHAR Acircumflex
ENCODING 194
SWIDTH 720 0
DWIDTH 18 0
BBX 18 22 0 0
BITMAP
01C000
03F000
07FC00
061800
000000
01E000
01E000
03F000
03F000
077800
077800
077C00
0E3C00
0E3C00
1FFE00
1FFE00
1C1F00
381F00
380F00
FE3FC0
FE3FC0
FE3FC0
ENDCHAR

STARTCHAR Atilde
ENCODING 195
SWIDTH 720 0
DWIDTH 18 0
BBX 18 22 0 0
BITMAP
03C000
07F800
07F800
006000
000000
01E000
01E000
03F000
03F000
077800
077800
077C00
0E3C00
0E3C00
1FFE00
1FFE00
1C1F00
381F00
380F00
FE3FC0
FE3FC0
FE3FC0
ENDCHAR

STARTCHAR Adieresis
ENCODING 196
SWIDTH 720 0
DWIDTH 18 0
BBX 19 21 -1 0
BITMAP
071C00
071C00
071C00
000000
01F000
01F000
01F000
03F800
03B800
077C00
073C00
073C00
0E3E00
0FFE00
1FFF00
1C0F00
1C0F80
380F80
FE3FE0
FE3FE0
FE3FE0
ENDCHAR

STARTCHAR Aring
ENCODING 197
SWIDTH 720 0
DWIDTH 18 0
BBX 18 24 0 0
BITMAP
01E000
033000
033000
03F000
01E000
000000
000000
01E000
01F000
03F000
03F000
077800
077800
0F7C00
0E3C00
0E3C00
1FFE00
1FFE00
3C1F00
381F00
380F00
FE3FC0
FE3FC0
FE3FC0
ENDCHAR

STARTCHAR AE
ENCODING 198
SWIDTH 1140 0
DWIDTH 28 0
BBX 28 17 0 0
BITMAP
07FFFF80
07FFFFC0
01FFFFC0
03C781C0
038780E0
07878C60
07078C00
0F07FC00
0FFFFC00
1FFF8C00
1C078C70
3C078C60
380780E0
780781E0
FE1FFFC0
FE1FFFC0
FE1FFFC0
ENDCHAR

STARTCHAR Ccedilla
ENCODING 199
SWIDTH 740 0
DWIDTH 18 0
BBX 17 22 1 -5
BITMAP
03F600
0FFF00
1FFF00
3E0F00
7C0700
780380
F80300
F80000
F80000
F80000
F80000
7C0180
7C0380
3F0F00
1FFE00
0FFC00
03E000
00C000
003000
013000
01F000
00E000
ENDCHAR

STARTCHAR Egrave
ENCODING 200
SWIDTH 720 0
DWIDTH 18 0
BBX 17 23 1 0
BITMAP
030000
078000
07C000
03F000
006000
000000
FFFC00
FFFE00
7FFE00
3C0E00
3C0700
3C6300
3CE000
3FE000
3FE000
3CE000
3C6380
3C6380
3C0700
3C0F00
FFFE00
FFFE00
FFFE00
ENDCHAR

STARTCHAR Eacute
ENCODING 201
SWIDTH 720 0
DWIDTH 18 0
BBX 17 23 1 0
BITMAP
006000
00E000
03F000
07E000
070000
000000
FFFC00
FFFE00
7FFE00
3C0E00
3C0700
3C6300
3CE000
3FE000
3FE000
3CE000
3C6380
3C6380
3C0700
3C0F00
FFFE00
FFFE00
FFFE00
ENDCHAR

STARTCHAR Ecircumflex
ENCODING 202
SWIDTH 720 0
DWIDTH 18 0
BBX 17 23 1 0
BITMAP
008000
01C000
07F000
0FF800
041000
000000
FFFC00
FFFE00
7FFE00
3C0E00
3C0700
3C6300
3CE000
3FE000
3FE000
3CE000
3C6380
3C6380
3C0700
3C0F00
FFFE00
FFFE00
FFFE00
ENDCHAR

STARTCHAR Edieresis
ENCODING 203
SWIDTH 720 0
DWIDTH 18 0
BBX 17 21 1 0
BITMAP
0E3800
0E3800
0E3800
000000
FFFC00
FFFE00
7FFE00
3C0E00
3C0700
3C6300
3CE000
3FE000
3FE000
3CE000
3C6380
3C6380
3C0700
3C0F00
FFFE00
FFFE00
FFFE00
ENDCHAR

STARTCHAR Igrave
ENCODING 204
SWIDTH 400 0
DWIDTH 10 0
BBX 8 23 1 0
BITMAP
70
78
7C
3E
02
00
FF
FF
3C
3C
3C
3C
3C
3C
3C
3C
3C
3C
3C
3C
3C
FF
FF
ENDCHAR

STARTCHAR Iacute
ENCODING 205
SWIDTH 400 0
DWIDTH 10 0
BBX 8 23 1 0
BITMAP
0E
1E
3E
7C
40
00
FF
FF
3C
3C
3C
3C
3C
3C
3C
3C
3C
3C
3C
3C
3C
FF
FF
ENDCHAR

STARTCHAR Icircumflex
ENCODING 206
SWIDTH 400 0
DWIDTH 10 0
BBX 10 23 0 0
BITMAP
0C00
1E00
FFC0
7380
4080
0000
7F80
7F80
1E00
1E00
1E00
1E00
1E00
1E00
1E00
1E00
1E00
1E00
1E00
1E00
1E00
7F80
7F80
ENDCHAR

STARTCHAR Idieresis
ENCODING 207
SWIDTH 400 0
DWIDTH 10 0
BBX 9 22 0 0
BITMAP
E380
E380
E380
0000
0000
7F80
7F80
1E00
1E00
1E00
1E00
1E00
1E00
1E00
1E00
1E00
1E00
1E00
1E00
1E00
7F80
7F80
ENDCHAR

STARTCHAR Gbreve
ENCODING 208
SWIDTH 780 0
DWIDTH 20 0
BBX 19 22 1 0
BITMAP
060C00
03FC00
03F800
00E000
000000
03F600
0FFF00
1FFF00
3E0F00
7C0780
780380
F80000
F80000
F81FE0
F81FE0
F80780
7C0780
7C0780
3F0F80
1FFF80
0FFD80
03E380
ENDCHAR

STARTCHAR Ntilde
ENCODING 209
SWIDTH 740 0
DWIDTH 18 0
BBX 17 22 1 0
BITMAP
038000
07F800
0FF000
00E000
000000
FE3F80
FF3F80
3F0E00
3F8E00
3B8E00
3BCE00
3BCE00
39EE00
39EE00
38F600
38FE00
387E00
387E00
383E00
383E00
FE1E00
FE1E00
ENDCHAR

STARTCHAR Ograve
ENCODING 210
SWIDTH 800 0
DWIDTH 20 0
BBX 19 22 1 0
BITMAP
03C000
03E000
01F000
007800
000000
03F800
0FFE00
1FFF00
3E0F80
7C07C0
7C03C0
F803E0
F803E0
F803E0
F803E0
F803E0
7C03C0
7C07C0
3E0F80
1FFF00
0FFE00
01F800
ENDCHAR

STARTCHAR Oacute
ENCODING 211
SWIDTH 800 0
DWIDTH 20 0
BBX 19 22 1 0
BITMAP
007800
00F800
01F000
03C000
000000
03F800
0FFE00
1FFF00
3E0F80
7C07C0
7C03C0
F803E0
F803E0
F803E0
F803E0
F803E0
7C03C0
7C07C0
3E0F80
1FFF00
0FFE00
01F800
ENDCHAR

STARTCHAR Ocircumflex
ENCODING 212
SWIDTH 800 0
DWIDTH 20 0
BBX 19 22 1 0
BITMAP
00E000
01F000
07FC00
071C00
000000
03F800
0FFE00
1FFF00
3E0F80
7C07C0
7C03C0
F803E0
F803E0
F803E0
F803E0
F803E0
7C03C0
7C07C0
3E0F80
1FFF00
0FFE00
01F800
ENDCHAR

STARTCHAR Otilde
ENCODING 213
SWIDTH 800 0
DWIDTH 20 0
BBX 19 22 1 0
BITMAP
01C000
03FC00
07F800
007000
000000
03F800
0FFE00
1FFF00
3E0F80
7C07C0
7C03C0
F803E0
F803E0
F803E0
F803E0
F803E0
7C03C0
7C07C0
3E0F80
1FFF00
0FFE00
01F800
ENDCHAR

STARTCHAR Odieresis
ENCODING 214
SWIDTH 800 0
DWIDTH 20 0
BBX 19 21 1 0
BITMAP
071C00
071C00
071C00
000000
03F800
0FFE00
1FFF00
3E0F80
7C07C0
7C03C0
F803E0
F803E0
F803E0
F803E0
F803E0
7C03C0
7C07C0
3E0F80
1FFF00
0FFE00
01F800
ENDCHAR

STARTCHAR multiply
ENCODING 215
SWIDTH 600 0
DWIDTH 15 0
BBX 11 11 2 3
BITMAP
4040
E0E0
71C0
3B80
1F00
0E00
1F00
3B80
71C0
E0E0
4040
ENDCHAR

STARTCHAR Oslash
ENCODING 216
SWIDTH 800 0
DWIDTH 20 0
BBX 19 17 1 0
BITMAP
03F840
0FFEE0
1FFFC0
3E0F80
7C07C0
7C0FC0
F83BE0
F873E0
F8E3E0
F9C3E0
FB83E0
7E03C0
7C07C0
3E0F80
7FFF00
EFFE00
43F800
ENDCHAR

STARTCHAR Ugrave
ENCODING 217
SWIDTH 740 0
DWIDTH 18 0
BBX 17 23 1 0
BITMAP
030000
07C000
03E000
03F000
001000
000000
FF3F80
FF3F80
3C0E00
3C0E00
3C0E00
3C0E00
3C0E00
3C0E00
3C0E00
3C0E00
3C0E00
3C0E00
3C0E00
3E1C00
1FFC00
0FF800
03E000
ENDCHAR

STARTCHAR Uacute
ENCODING 218
SWIDTH 740 0
DWIDTH 18 0
BBX 17 23 1 0
BITMAP
006000
01F000
03E000
07E000
020000
000000
FF3F80
FF3F80
3C0E00
3C0E00
3C0E00
3C0E00
3C0E00
3C0E00
3C0E00
3C0E00
3C0E00
3C0E00
3C0E00
3E1C00
1FFC00
0FF800
03E000
ENDCHAR

STARTCHAR Ucircumflex
ENCODING 219
SWIDTH 740 0
DWIDTH 18 0
BBX 17 23 1 0
BITMAP
008000
03E000
07F000
0F7800
040800
000000
FF3F80
FF3F80
3C0E00
3C0E00
3C0E00
3C0E00
3C0E00
3C0E00
3C0E00
3C0E00
3C0E00
3C0E00
3C0E00
3E1C00
1FFC00
0FF800
03E000
ENDCHAR

STARTCHAR Udieresis
ENCODING 220
SWIDTH 740 0
DWIDTH 18 0
BBX 17 22 1 0
BITMAP
0E3800
0E3800
0E3800
000000
000000
FF3F80
FF3F80
3C0E00
3C0E00
3C0E00
3C0E00
3C0E00
3C0E00
3C0E00
3C0E00
3C0E00
3C0E00
3C0E00
3E1C00
1FFC00
0FF800
03E000
ENDCHAR

STARTCHAR Idotaccent
ENCODING 221
SWIDTH 400 0
DWIDTH 10 0
BBX 8 22 1 0
BITMAP
1C
1C
1C
00
00
FF
FF
3C
3C
3C
3C
3C
3C
3C
3C
3C
3C
3C
3C
3C
FF
FF
ENDCHAR

STARTCHAR Scedilla
ENCODING 222
SWIDTH 660 0
DWIDTH 16 0
BBX 15 22 1 -5
BITMAP
0F98
3FF8
7FF8
F07C
F03C
F81C
FF80
7FF0
3FF8
07FC
C0FE
E01E
F01E
F81C
7FFC
7FF8
67E0
0100
01C0
0060
03E0
01C0
ENDCHAR

STARTCHAR germandbls
ENCODING 223
SWIDTH 660 0
DWIDTH 16 0
BBX 15 18 1 0
BITMAP
03C0
0FF0
1FF8
3E38
3C3C
3CF8
FDF0
FDC0
FDE0
3DF0
3CFC
3C7E
3C3E
3C1E
3FCE
3DFE
FDFC
FC70
ENDCHAR

STARTCHAR agrave
ENCODING 224
SWIDTH 580 0
DWIDTH 15 0
BBX 13 18 1 0
BITMAP
0C00
1F00
0FC0
0780
0000
0000
1F80
7FC0
79E0
71E0
01E0
3FE0
7FE0
F1E0
F1E0
FFF8
7EF8
3878
ENDCHAR

STARTCHAR aacute
ENCODING 225
SWIDTH 580 0
DWIDTH 15 0
BBX 13 18 1 0
BITMAP
0380
07C0
0F80
1F00
0000
0000
1F80
7FC0
79E0
71E0
01E0
3FE0
7FE0
F1E0
F1E0
FFF8
7EF8
3878
ENDCHAR

STARTCHAR acircumflex
ENCODING 226
SWIDTH 580 0
DWIDTH 15 0
BBX 13 18 1 0
BITMAP
0200
0F80
3FE0
39C0
0000
0000
1F80
7FC0
79E0
71E0
01E0
3FE0
7FE0
F1E0
F1E0
FFF8
7EF8
3878
ENDCHAR

STARTCHAR atilde
ENCODING 227
SWIDTH 580 0
DWIDTH 15 0
BBX 13 18 1 0
BITMAP
0E00
1FE0
3FC0
0780
0000
0000
1F80
7FC0
79E0
71E0
01E0
3FE0
7FE0
F1E0
F1E0
FFF8
7EF8
3878
ENDCHAR

STARTCHAR adieresis
ENCODING 228
SWIDTH 580 0
DWIDTH 15 0
BBX 13 17 1 0
BITMAP
38E0
38E0
38E0
0000
0000
3F80
7FC0
F1E0
F1E0
21E0
3FE0
7FE0
F1E0
F1E0
FFF8
7EF8
3878
ENDCHAR

STARTCHAR aring
ENCODING 229
SWIDTH 580 0
DWIDTH 15 0
BBX 14 19 0 0
BITMAP
0780
0CC0
0CC0
0FC0
0780
0000
0000
1FC0
3FE0
78F0
78F0
10F0
1FF0
7FF0
F0F0
F0F0
FFFC
7F7C
3C3C
ENDCHAR

STARTCHAR ae
ENCODING 230
SWIDTH 880 0
DWIDTH 22 0
BBX 20 12 1 0
BITMAP
1FDF80
7FFFC0
79F9E0
70F0F0
01FFF0
3FFFF0
7EF000
F0F020
F0F870
FFFFF0
7F3FC0
3C0F00
ENDCHAR

STARTCHAR ccedilla
ENCODING 231
SWIDTH 580 0
DWIDTH 15 0
BBX 13 17 1 -5
BITMAP
0780
3FF0
7FF8
7878
F878
F000
F000
F810
FC38
7FF8
3FE0
0FC0
0200
0780
00C0
0FC0
0780
ENDCHAR

STARTCHAR egrave
ENCODING 232
SWIDTH 580 0
DWIDTH 15 0
BBX 12 18 1 0
BITMAP
1C00
1E00
1F00
0F80
0000
0000
1F80
3FC0
79E0
F0F0
FFF0
FFF0
F000
F020
7870
7FF0
3FC0
0F80
ENDCHAR

STARTCHAR eacute
ENCODING 233
SWIDTH 580 0
DWIDTH 15 0
BBX 12 18 1 0
BITMAP
0380
0780
0F80
1F00
0000
0000
1F80
3FC0
79E0
F0F0
FFF0
FFF0
F000
F020
7870
7FF0
3FC0
0F80
ENDCHAR

STARTCHAR ecircumflex
ENCODING 234
SWIDTH 580 0
DWIDTH 15 0
BBX 12 18 1 0
BITMAP
0600
0F00
3FC0
39C0
0000
0000
1F80
3FC0
79E0
F0F0
FFF0
FFF0
F000
F020
7870
7FF0
3FC0
0F80
ENDCHAR

STARTCHAR edieresis
ENCODING 235
SWIDTH 580 0
DWIDTH 15 0
BBX 13 17 1 0
BITMAP
3CE0
3CE0
3CE0
0000
0000
0FC0
3FE0
7CF0
7870
FFF8
FFF8
F800
F810
7C38
3FF0
1FE0
07C0
ENDCHAR

STARTCHAR igrave
ENCODING 236
SWIDTH 360 0
DWIDTH 9 0
BBX 8 18 1 0
BITMAP
20
78
7C
3E
06
00
0C
FC
FC
3C
3C
3C
3C
3C
3C
3C
FF
FF
ENDCHAR

STARTCHAR iacute
ENCODING 237
SWIDTH 360 0
DWIDTH 9 0
BBX 8 18 1 0
BITMAP
04
1E
3E
7E
60
00
0C
FC
FC
3C
3C
3C
3C
3C
3C
3C
FF
FF
ENDCHAR

STARTCHAR icircumflex
ENCODING 238
SWIDTH 360 0
DWIDTH 9 0
BBX 9 18 1 0
BITMAP
0800
3C00
7E00
FF80
8100
0000
0C00
FC00
FC00
3C00
3C00
3C00
3C00
3C00
3C00
3C00
FF00
FF00
ENDCHAR

STARTCHAR idieresis
ENCODING 239
SWIDTH 360 0
DWIDTH 9 0
BBX 9 17 0 0
BITMAP
E380
E380
E380
4100
0000
0C00
FC00
FC00
3C00
3C00
3C00
3C00
3C00
3C00
3C00
FF00
FF00
ENDCHAR

STARTCHAR gbreve
ENCODING 240
SWIDTH 580 0
DWIDTH 15 0
BBX 14 23 0 -5
BITMAP
1860
1FE0
0FC0
0380
0000
001C
1FDC
3FFC
78F0
78F0
78F0
78F0
1FE0
3FC0
7000
7F00
7FF0
1FF8
7BFC
F03C
F838
7FF0
1FE0
ENDCHAR

STARTCHAR ntilde
ENCODING 241
SWIDTH 680 0
DWIDTH 17 0
BBX 16 17 1 0
BITMAP
0780
0FF8
0FF0
00C0
0000
1CF0
FDF8
FFFC
3E3C
3C3C
3C3C
3C3C
3C3C
3C3C
3C3C
FE7F
FE7F
ENDCHAR

STARTCHAR ograve
ENCODING 242
SWIDTH 620 0
DWIDTH 16 0
BBX 13 18 1 0
BITMAP
0C00
1E00
0F00
0FC0
0080
0000
0F80
3FE0
7FF0
F8F8
F078
F078
F078
F078
F8F8
7FF0
3FE0
0F80
ENDCHAR

STARTCHAR oacute
ENCODING 243
SWIDTH 620 0
DWIDTH 16 0
BBX 13 18 1 0
BITMAP
0180
03C0
0780
1F80
0C00
0000
0F80
3FE0
7FF0
F8F8
F078
F078
F078
F078
F8F8
7FF0
3FE0
0F80
ENDCHAR

STARTCHAR ocircumflex
ENCODING 244
SWIDTH 620 0
DWIDTH 16 0
BBX 13 18 1 0
BITMAP
0200
0700
1FC0
3FE0
1040
0000
0F80
3FE0
7FF0
F8F8
F078
F078
F078
F078
F8F8
7FF0
3FE0
0F80
ENDCHAR

STARTCHAR otilde
ENCODING 245
SWIDTH 620 0
DWIDTH 16 0
BBX 13 18 1 0
BITMAP
0E00
1FE0
3FC0
1780
0000
0000
0F80
3FE0
7FF0
F8F8
F078
F078
F078
F078
F8F8
7FF0
3FE0
0F80
ENDCHAR

STARTCHAR odieresis
ENCODING 246
SWIDTH 620 0
DWIDTH 16 0
BBX 13 17 1 0
BITMAP
38E0
38E0
38E0
0000
0000
0F80
3FE0
7FF0
F8F8
F078
F078
F078
F078
F8F8
7FF0
3FE0
0F80
ENDCHAR

STARTCHAR divide
ENCODING 247
SWIDTH 600 0
DWIDTH 15 0
BBX 13 11 1 3
BITMAP
0700
0700
0700
0000
FFF8
FFF8
0000
0000
0700
0700
0700
ENDCHAR

STARTCHAR oslash
ENCODING 248
SWIDTH 620 0
DWIDTH 16 0
BBX 13 12 1 0
BITMAP
0F88
3FF8
7FF0
F8F8
F1F8
F378
F678
FC78
F8F8
7FF0
FFE0
4F80
ENDCHAR

STARTCHAR ugrave
ENCODING 249
SWIDTH 660 0
DWIDTH 16 0
BBX 16 18 0 0
BITMAP
0700
0780
07C0
03E0
0020
0000
FCFC
FCFC
FCFC
3C3C
3C3C
3C3C
3C3C
3C3C
3C7C
3FFF
1FDF
0F3F
ENDCHAR

STARTCHAR uacute
ENCODING 250
SWIDTH 660 0
DWIDTH 16 0
BBX 16 18 0 0
BITMAP
00E0
01E0
03E0
07C0
0400
0000
FCFC
FCFC
FCFC
3C3C
3C3C
3C3C
3C3C
3C3C
3C7C
3FFF
1FDF
0F3F
ENDCHAR

STARTCHAR ucircumflex
ENCODING 251
SWIDTH 660 0
DWIDTH 16 0
BBX 16 18 0 0
BITMAP
0080
03C0
1FF8
0F70
0810
0000
FCFC
FCFC
FCFC
3C3C
3C3C
3C3C
3C3C
3C3C
3C7C
3FFF
1FDF
0F3F
ENDCHAR

STARTCHAR udieresis
ENCODING 252
SWIDTH 660 0
DWIDTH 16 0
BBX 16 17 0 0
BITMAP
0E38
0E38
0E38
0000
0000
FCFC
FCFC
FCFC
3C3C
3C3C
3C3C
3C3C
3C3C
3C7C
3FFF
1FDF
0F3F
ENDCHAR

STARTCHAR dotlessi
ENCODING 253
SWIDTH 360 0
DWIDTH 9 0
BBX 8 12 1 0
BITMAP
0C
FC
FC
3C
3C
3C
3C
3C
3C
3C
FF
FF
ENDCHAR

STARTCHAR scedilla
ENCODING 254
SWIDTH 520 0
DWIDTH 13 0
BBX 12 17 1 -5
BITMAP
3FC0
7FC0
F1E0
F8E0
FE00
7FC0
1FE0
67F0
F0F0
F8E0
7FE0
6F80
0600
0180
0980
0F80
0700
ENDCHAR

STARTCHAR ydieresis
ENCODING 255
SWIDTH 620 0
DWIDTH 16 0
BBX 15 23 0 -6
BITMAP
1C70
1C70
1C70
0000
0000
FF7E
FF7E
7C3C
3C38
3E38
1E70
1F70
0F60
0FE0
07C0
07C0
0380
0380
0700
7700
FE00
7E00
3C00
ENDCHAR
ENDFONT
